<svg width="20" height="20" viewBox="0 0 20 20" fill="none" xmlns="http://www.w3.org/2000/svg">
<path fill-rule="evenodd" clip-rule="evenodd" d="M18.75 9C19.1642 9 19.5 9.33579 19.5 9.75V18.75C19.5 19.1642 19.1642 19.5 18.75 19.5H0.75C0.335786 19.5 0 19.1642 0 18.75V9.75415C0 9.33994 0.335786 9.00415 0.75 9.00415C1.16421 9.00415 1.5 9.33994 1.5 9.75415V18H18V9.75C18 9.33579 18.3358 9 18.75 9Z" fill="white"/>
<path fill-rule="evenodd" clip-rule="evenodd" d="M4.71967 8.71967C5.01256 8.42678 5.48744 8.42678 5.78033 8.71967L9.75 12.6893L13.7197 8.71967C14.0126 8.42678 14.4874 8.42678 14.7803 8.71967C15.0732 9.01256 15.0732 9.48744 14.7803 9.78033L10.2803 14.2803C9.98744 14.5732 9.51256 14.5732 9.21967 14.2803L4.71967 9.78033C4.42678 9.48744 4.42678 9.01256 4.71967 8.71967Z" fill="white"/>
<path fill-rule="evenodd" clip-rule="evenodd" d="M9.74609 0C10.1603 0 10.4961 0.335786 10.4961 0.75V13.75C10.4961 14.1642 10.1603 14.5 9.74609 14.5C9.33188 14.5 8.99609 14.1642 8.99609 13.75V0.75C8.99609 0.335786 9.33188 0 9.74609 0Z" fill="white"/>
</svg>
