<svg width="40" height="40" viewBox="0 0 40 40" fill="none" xmlns="http://www.w3.org/2000/svg">
<path fill-rule="evenodd" clip-rule="evenodd" d="M28.75 19C29.1642 19 29.5 19.3358 29.5 19.75V28.75C29.5 29.1642 29.1642 29.5 28.75 29.5H10.75C10.3358 29.5 10 29.1642 10 28.75V19.7542C10 19.3399 10.3358 19.0042 10.75 19.0042C11.1642 19.0042 11.5 19.3399 11.5 19.7542V28H28V19.75C28 19.3358 28.3358 19 28.75 19Z" fill="white"/>
<path fill-rule="evenodd" clip-rule="evenodd" d="M14.7197 18.7197C15.0126 18.4268 15.4874 18.4268 15.7803 18.7197L19.75 22.6893L23.7197 18.7197C24.0126 18.4268 24.4874 18.4268 24.7803 18.7197C25.0732 19.0126 25.0732 19.4874 24.7803 19.7803L20.2803 24.2803C19.9874 24.5732 19.5126 24.5732 19.2197 24.2803L14.7197 19.7803C14.4268 19.4874 14.4268 19.0126 14.7197 18.7197Z" fill="white"/>
<path fill-rule="evenodd" clip-rule="evenodd" d="M19.7461 10C20.1603 10 20.4961 10.3358 20.4961 10.75V23.75C20.4961 24.1642 20.1603 24.5 19.7461 24.5C19.3319 24.5 18.9961 24.1642 18.9961 23.75V10.75C18.9961 10.3358 19.3319 10 19.7461 10Z" fill="white"/>
</svg>
