<svg width="216" height="57" viewBox="0 0 216 57" fill="none" xmlns="http://www.w3.org/2000/svg">
<path d="M0 53.893V49.1982L22.25 28.3638C25.92 24.9254 28.8 21.0683 28.8 16.7923C28.8 10.8313 23.54 5.77608 17.28 5.77608C10.37 5.77608 5.98 10.5488 5.76 18.7501H0.43C0.43 6.33128 9.07 1.07153 17.57 1.07153C27.65 1.07153 34.13 9.13647 34.13 16.9189C34.13 23.9319 29.52 28.4222 24.34 33.2631L7.2 49.1884H33.84V53.8833H0V53.893Z" fill="white"/>
<path d="M132.48 1.98706H137.81V34.8799C137.81 47.9903 129.96 54.7988 119.66 54.7988C109.36 54.7988 101.51 48.2046 101.51 34.7436V1.98706H106.84V35.0163C106.84 45.4676 112.6 50.0942 119.66 50.0942C125.78 50.0942 132.48 46.3735 132.48 35.0845V1.98706Z" fill="white"/>
<path d="M146.81 53.8929V1.98706H160.49C171.65 1.98706 177.63 7.9481 177.63 15.7988C177.63 20.0747 176.05 22.9481 171.8 26.2501C177.49 28.5682 180.66 33.4773 180.66 39.0098C180.66 46.091 176.56 53.8832 162.66 53.8832H146.82L146.81 53.8929ZM160.56 24.3702C170.78 24.3702 172.3 18.6234 172.3 15.604C172.3 11.7468 170 6.70135 160.13 6.70135H152.14V24.3799H160.56V24.3702ZM162.22 49.1981C169.06 49.1981 175.33 46.5293 175.33 39.0293C175.33 33.1364 170.07 29.0747 162.22 29.0747H152.14V49.2079H162.22V49.1981Z" fill="white"/>
<path d="M186.04 53.8929V1.98706H215.2V6.68187H191.37V25.3345H214.41V30.0293H191.37V49.1786H215.2V53.8735H186.04V53.8929Z" fill="white"/>
<path d="M94.5401 56.9904C88.2601 56.6202 83.6501 54.5943 79.1401 50.2014L78.9101 49.9774C74.3201 45.5066 70.7001 41.9806 61.1501 39.6527C54.4101 38.0163 46.5101 41.3475 46.4301 41.3865L44.5801 37.315C44.9601 37.1494 53.9701 33.3118 62.2601 35.3377C73.0401 37.9676 77.4701 42.2728 82.1501 46.841L82.3801 47.065C86.0801 50.6689 89.6801 52.2566 94.8201 52.5585L94.5501 57.0001L94.5401 56.9904Z" fill="url(#paint0_linear_390_4676)"/>
<path d="M66.95 55.5C51.24 55.5 38.46 43.052 38.46 27.75C38.46 12.4481 51.24 0 66.95 0C82.66 0 95.44 12.4481 95.44 27.75C95.44 43.052 82.66 55.5 66.95 55.5ZM66.95 4.46104C53.76 4.46104 43.04 14.9123 43.04 27.75C43.04 40.5877 53.77 51.039 66.95 51.039C80.13 51.039 90.86 40.5877 90.86 27.75C90.86 14.9123 80.13 4.46104 66.95 4.46104Z" fill="white"/>
<defs>
<linearGradient id="paint0_linear_390_4676" x1="94.8201" y1="45.867" x2="44.5801" y2="45.867" gradientUnits="userSpaceOnUse">
<stop offset="0.12" stop-color="white"/>
<stop offset="0.27"/>
<stop offset="0.38" stop-color="white"/>
<stop offset="0.75" stop-color="white"/>
<stop offset="1"/>
</linearGradient>
</defs>
</svg>
